<mxfile host="app.diagrams.net" modified="2024-04-06T01:42:00.198Z" agent="Mozilla/5.0 (Windows NT 10.0; Win64; x64) AppleWebKit/537.36 (KHTML, like Gecko) Chrome/123.0.0.0 Safari/537.36" etag="jP8wcvYnHUIgaCpwzIEl" version="24.1.0" type="google">
  <diagram name="Página-1" id="OZn_R0CLGC6H1NiButbQ">
    <mxGraphModel grid="1" page="0" gridSize="10" guides="1" tooltips="1" connect="1" arrows="1" fold="1" pageScale="1" pageWidth="3300" pageHeight="4681" math="0" shadow="0">
      <root>
        <mxCell id="0" />
        <mxCell id="1" parent="0" />
        <mxCell id="zA1o3HYQf6FzbYu6lH_u-110" value="" style="verticalLabelPosition=bottom;verticalAlign=top;html=1;shape=mxgraph.basic.rect;fillColor2=none;strokeWidth=1;size=20;indent=5;gradientColor=none;fillColor=none;" vertex="1" parent="1">
          <mxGeometry x="340" y="-270" width="910" height="240" as="geometry" />
        </mxCell>
        <mxCell id="zA1o3HYQf6FzbYu6lH_u-1" value="&lt;span id=&quot;docs-internal-guid-861f3e69-7fff-2210-76d1-51e22954683f&quot;&gt;&lt;span style=&quot;font-size: 11pt; font-family: Montserrat, sans-serif; background-color: transparent; font-variant-numeric: normal; font-variant-east-asian: normal; font-variant-alternates: normal; font-variant-position: normal; vertical-align: baseline; white-space-collapse: preserve;&quot;&gt;restaurante&lt;/span&gt;&lt;/span&gt;" style="swimlane;fontStyle=0;childLayout=stackLayout;horizontal=1;startSize=26;fillColor=#dae8fc;horizontalStack=0;resizeParent=1;resizeParentMax=0;resizeLast=0;collapsible=1;marginBottom=0;whiteSpace=wrap;html=1;strokeColor=#6c8ebf;" vertex="1" parent="1">
          <mxGeometry x="42" y="170" width="270" height="182" as="geometry" />
        </mxCell>
        <mxCell id="zA1o3HYQf6FzbYu6lH_u-2" value="id (PK): int" style="text;strokeColor=#9673a6;fillColor=#e1d5e7;align=left;verticalAlign=top;spacingLeft=4;spacingRight=4;overflow=hidden;rotatable=0;points=[[0,0.5],[1,0.5]];portConstraint=eastwest;whiteSpace=wrap;html=1;fontStyle=1;perimeterSpacing=0;labelBorderColor=none;fontSize=16;" vertex="1" parent="zA1o3HYQf6FzbYu6lH_u-1">
          <mxGeometry y="26" width="270" height="26" as="geometry" />
        </mxCell>
        <mxCell id="zA1o3HYQf6FzbYu6lH_u-3" value="&lt;span id=&quot;docs-internal-guid-0211dc23-7fff-2954-3f79-a4bf8f088f3e&quot;&gt;&lt;span style=&quot;font-size: 11pt; font-family: Montserrat, sans-serif; background-color: transparent; font-variant-numeric: normal; font-variant-east-asian: normal; font-variant-alternates: normal; font-variant-position: normal; vertical-align: baseline; white-space-collapse: preserve;&quot;&gt;nombre: varchar(50)&lt;/span&gt;&lt;/span&gt;" style="text;strokeColor=default;fillColor=default;align=left;verticalAlign=top;spacingLeft=4;spacingRight=4;overflow=hidden;rotatable=0;points=[[0,0.5],[1,0.5]];portConstraint=eastwest;whiteSpace=wrap;html=1;" vertex="1" parent="zA1o3HYQf6FzbYu6lH_u-1">
          <mxGeometry y="52" width="270" height="26" as="geometry" />
        </mxCell>
        <mxCell id="zA1o3HYQf6FzbYu6lH_u-4" value="&lt;span id=&quot;docs-internal-guid-240b893d-7fff-4a89-8630-27ee9b691f8e&quot;&gt;&lt;span style=&quot;font-size: 11pt; font-family: Montserrat, sans-serif; background-color: transparent; font-variant-numeric: normal; font-variant-east-asian: normal; font-variant-alternates: normal; font-variant-position: normal; vertical-align: baseline; white-space-collapse: preserve;&quot;&gt;foto: bigint&lt;/span&gt;&lt;/span&gt;" style="text;strokeColor=default;fillColor=default;align=left;verticalAlign=top;spacingLeft=4;spacingRight=4;overflow=hidden;rotatable=0;points=[[0,0.5],[1,0.5]];portConstraint=eastwest;whiteSpace=wrap;html=1;" vertex="1" parent="zA1o3HYQf6FzbYu6lH_u-1">
          <mxGeometry y="78" width="270" height="26" as="geometry" />
        </mxCell>
        <mxCell id="zA1o3HYQf6FzbYu6lH_u-5" value="&lt;span id=&quot;docs-internal-guid-9529a134-7fff-7397-e3dc-db4c1557d1ff&quot;&gt;&lt;span style=&quot;font-size: 11pt; font-family: Montserrat, sans-serif; background-color: transparent; font-variant-numeric: normal; font-variant-east-asian: normal; font-variant-alternates: normal; font-variant-position: normal; vertical-align: baseline; white-space-collapse: preserve;&quot;&gt;direccion: &lt;/span&gt;&lt;/span&gt;&lt;span style=&quot;font-family: Montserrat, sans-serif; font-size: 14.6667px; white-space-collapse: preserve;&quot;&gt;varchar(50)&lt;/span&gt;" style="text;strokeColor=default;fillColor=default;align=left;verticalAlign=top;spacingLeft=4;spacingRight=4;overflow=hidden;rotatable=0;points=[[0,0.5],[1,0.5]];portConstraint=eastwest;whiteSpace=wrap;html=1;" vertex="1" parent="zA1o3HYQf6FzbYu6lH_u-1">
          <mxGeometry y="104" width="270" height="26" as="geometry" />
        </mxCell>
        <mxCell id="zA1o3HYQf6FzbYu6lH_u-6" value="&lt;span id=&quot;docs-internal-guid-c7cad4ee-7fff-99a1-bf6b-b3e088b4cd01&quot;&gt;&lt;span style=&quot;font-size: 11pt; font-family: Montserrat, sans-serif; background-color: transparent; font-variant-numeric: normal; font-variant-east-asian: normal; font-variant-alternates: normal; font-variant-position: normal; vertical-align: baseline; white-space-collapse: preserve;&quot;&gt;horario_de_atención: &lt;/span&gt;&lt;/span&gt;&lt;span id=&quot;docs-internal-guid-9529a134-7fff-7397-e3dc-db4c1557d1ff&quot;&gt;&lt;span style=&quot;font-size: 11pt; font-family: Montserrat, sans-serif; background-color: transparent; font-variant-numeric: normal; font-variant-east-asian: normal; font-variant-alternates: normal; font-variant-position: normal; vertical-align: baseline; white-space-collapse: preserve;&quot;&gt;: &lt;/span&gt;&lt;/span&gt;&lt;span style=&quot;white-space-collapse: preserve; font-family: Montserrat, sans-serif; font-size: 14.6667px;&quot;&gt;varchar(50)&lt;/span&gt;" style="text;strokeColor=default;fillColor=default;align=left;verticalAlign=top;spacingLeft=4;spacingRight=4;overflow=hidden;rotatable=0;points=[[0,0.5],[1,0.5]];portConstraint=eastwest;whiteSpace=wrap;html=1;" vertex="1" parent="zA1o3HYQf6FzbYu6lH_u-1">
          <mxGeometry y="130" width="270" height="26" as="geometry" />
        </mxCell>
        <mxCell id="zA1o3HYQf6FzbYu6lH_u-7" value="&lt;span id=&quot;docs-internal-guid-dc7a1faa-7fff-0fdf-5cc9-e5f121c042b1&quot;&gt;&lt;span style=&quot;font-size: 11pt; font-family: Montserrat, sans-serif; background-color: transparent; font-variant-numeric: normal; font-variant-east-asian: normal; font-variant-alternates: normal; font-variant-position: normal; vertical-align: baseline; white-space-collapse: preserve;&quot;&gt;calificacion_del_1_al_5: decimal(3,1)&lt;/span&gt;&lt;/span&gt;" style="text;strokeColor=default;fillColor=default;align=left;verticalAlign=top;spacingLeft=4;spacingRight=4;overflow=hidden;rotatable=0;points=[[0,0.5],[1,0.5]];portConstraint=eastwest;whiteSpace=wrap;html=1;" vertex="1" parent="zA1o3HYQf6FzbYu6lH_u-1">
          <mxGeometry y="156" width="270" height="26" as="geometry" />
        </mxCell>
        <mxCell id="zA1o3HYQf6FzbYu6lH_u-9" value="&lt;span id=&quot;docs-internal-guid-d859b0e5-7fff-4562-f1cc-75b89f68ffd0&quot;&gt;&lt;span style=&quot;font-size: 11pt; font-family: Montserrat, sans-serif; background-color: transparent; font-variant-numeric: normal; font-variant-east-asian: normal; font-variant-alternates: normal; font-variant-position: normal; vertical-align: baseline; white-space-collapse: preserve;&quot;&gt;platos &lt;/span&gt;&lt;/span&gt;" style="swimlane;fontStyle=0;childLayout=stackLayout;horizontal=1;startSize=26;fillColor=#dae8fc;horizontalStack=0;resizeParent=1;resizeParentMax=0;resizeLast=0;collapsible=1;marginBottom=0;whiteSpace=wrap;html=1;strokeColor=#6c8ebf;" vertex="1" parent="1">
          <mxGeometry x="372" y="20" width="220" height="234" as="geometry" />
        </mxCell>
        <mxCell id="zA1o3HYQf6FzbYu6lH_u-10" value="id (PK): int" style="text;strokeColor=#9673a6;fillColor=#e1d5e7;align=left;verticalAlign=top;spacingLeft=4;spacingRight=4;overflow=hidden;rotatable=0;points=[[0,0.5],[1,0.5]];portConstraint=eastwest;whiteSpace=wrap;html=1;fontStyle=1;fontSize=16;" vertex="1" parent="zA1o3HYQf6FzbYu6lH_u-9">
          <mxGeometry y="26" width="220" height="26" as="geometry" />
        </mxCell>
        <mxCell id="zA1o3HYQf6FzbYu6lH_u-11" value="&lt;span id=&quot;docs-internal-guid-0211dc23-7fff-2954-3f79-a4bf8f088f3e&quot;&gt;&lt;span style=&quot;font-size: 11pt; font-family: Montserrat, sans-serif; background-color: transparent; font-variant-numeric: normal; font-variant-east-asian: normal; font-variant-alternates: normal; font-variant-position: normal; vertical-align: baseline; white-space-collapse: preserve;&quot;&gt;nombre: &lt;/span&gt;&lt;/span&gt;&lt;span style=&quot;font-family: Montserrat, sans-serif; font-size: 14.6667px; white-space-collapse: preserve;&quot;&gt;varchar(50)&lt;/span&gt;" style="text;strokeColor=default;fillColor=default;align=left;verticalAlign=top;spacingLeft=4;spacingRight=4;overflow=hidden;rotatable=0;points=[[0,0.5],[1,0.5]];portConstraint=eastwest;whiteSpace=wrap;html=1;" vertex="1" parent="zA1o3HYQf6FzbYu6lH_u-9">
          <mxGeometry y="52" width="220" height="26" as="geometry" />
        </mxCell>
        <mxCell id="zA1o3HYQf6FzbYu6lH_u-12" value="&lt;span id=&quot;docs-internal-guid-b9c05750-7fff-8f3b-a284-b74b758dbe0f&quot;&gt;&lt;span style=&quot;font-size: 11pt; font-family: Montserrat, sans-serif; background-color: transparent; font-variant-numeric: normal; font-variant-east-asian: normal; font-variant-alternates: normal; font-variant-position: normal; vertical-align: baseline; white-space-collapse: preserve;&quot;&gt;descripción: &lt;/span&gt;&lt;/span&gt;&lt;span style=&quot;font-family: Montserrat, sans-serif; font-size: 14.6667px; white-space-collapse: preserve;&quot;&gt;varchar(200)&lt;/span&gt;" style="text;strokeColor=default;fillColor=default;align=left;verticalAlign=top;spacingLeft=4;spacingRight=4;overflow=hidden;rotatable=0;points=[[0,0.5],[1,0.5]];portConstraint=eastwest;whiteSpace=wrap;html=1;" vertex="1" parent="zA1o3HYQf6FzbYu6lH_u-9">
          <mxGeometry y="78" width="220" height="26" as="geometry" />
        </mxCell>
        <mxCell id="zA1o3HYQf6FzbYu6lH_u-13" value="&lt;span id=&quot;docs-internal-guid-9529a134-7fff-7397-e3dc-db4c1557d1ff&quot;&gt;&lt;span style=&quot;font-size: 11pt; font-family: Montserrat, sans-serif; background-color: transparent; font-variant-numeric: normal; font-variant-east-asian: normal; font-variant-alternates: normal; font-variant-position: normal; vertical-align: baseline; white-space-collapse: preserve;&quot;&gt;foto: bigint&lt;/span&gt;&lt;/span&gt;" style="text;strokeColor=default;fillColor=default;align=left;verticalAlign=top;spacingLeft=4;spacingRight=4;overflow=hidden;rotatable=0;points=[[0,0.5],[1,0.5]];portConstraint=eastwest;whiteSpace=wrap;html=1;" vertex="1" parent="zA1o3HYQf6FzbYu6lH_u-9">
          <mxGeometry y="104" width="220" height="26" as="geometry" />
        </mxCell>
        <mxCell id="zA1o3HYQf6FzbYu6lH_u-14" value="&lt;span id=&quot;docs-internal-guid-8793d13d-7fff-cada-0095-573f2a17c763&quot;&gt;&lt;span style=&quot;font-size: 11pt; font-family: Montserrat, sans-serif; background-color: transparent; font-variant-numeric: normal; font-variant-east-asian: normal; font-variant-alternates: normal; font-variant-position: normal; vertical-align: baseline; white-space-collapse: preserve;&quot;&gt;precio_final: decimal(7,2)&lt;/span&gt;&lt;/span&gt;" style="text;strokeColor=default;fillColor=default;align=left;verticalAlign=top;spacingLeft=4;spacingRight=4;overflow=hidden;rotatable=0;points=[[0,0.5],[1,0.5]];portConstraint=eastwest;whiteSpace=wrap;html=1;" vertex="1" parent="zA1o3HYQf6FzbYu6lH_u-9">
          <mxGeometry y="130" width="220" height="26" as="geometry" />
        </mxCell>
        <mxCell id="zA1o3HYQf6FzbYu6lH_u-22" value="&lt;span id=&quot;docs-internal-guid-8793d13d-7fff-cada-0095-573f2a17c763&quot;&gt;&lt;span style=&quot;font-size: 11pt; font-family: Montserrat, sans-serif; background-color: transparent; font-variant-numeric: normal; font-variant-east-asian: normal; font-variant-alternates: normal; font-variant-position: normal; vertical-align: baseline; white-space-collapse: preserve;&quot;&gt;ingredientes: varchar(200)&lt;/span&gt;&lt;/span&gt;" style="text;strokeColor=default;fillColor=default;align=left;verticalAlign=top;spacingLeft=4;spacingRight=4;overflow=hidden;rotatable=0;points=[[0,0.5],[1,0.5]];portConstraint=eastwest;whiteSpace=wrap;html=1;" vertex="1" parent="zA1o3HYQf6FzbYu6lH_u-9">
          <mxGeometry y="156" width="220" height="26" as="geometry" />
        </mxCell>
        <mxCell id="zA1o3HYQf6FzbYu6lH_u-80" value="&lt;span id=&quot;docs-internal-guid-8793d13d-7fff-cada-0095-573f2a17c763&quot;&gt;&lt;span style=&quot;font-size: 11pt; font-family: Montserrat, sans-serif; background-color: transparent; font-variant-numeric: normal; font-variant-east-asian: normal; font-variant-alternates: normal; font-variant-position: normal; vertical-align: baseline; white-space-collapse: preserve;&quot;&gt;categoria_id(FK)&lt;/span&gt;&lt;/span&gt;" style="text;strokeColor=#82b366;fillColor=#d5e8d4;align=left;verticalAlign=top;spacingLeft=4;spacingRight=4;overflow=hidden;rotatable=0;points=[[0,0.5],[1,0.5]];portConstraint=eastwest;whiteSpace=wrap;html=1;" vertex="1" parent="zA1o3HYQf6FzbYu6lH_u-9">
          <mxGeometry y="182" width="220" height="26" as="geometry" />
        </mxCell>
        <mxCell id="zA1o3HYQf6FzbYu6lH_u-87" value="&lt;span id=&quot;docs-internal-guid-8793d13d-7fff-cada-0095-573f2a17c763&quot;&gt;&lt;span style=&quot;font-size: 11pt; font-family: Montserrat, sans-serif; background-color: transparent; font-variant-numeric: normal; font-variant-east-asian: normal; font-variant-alternates: normal; font-variant-position: normal; vertical-align: baseline; white-space-collapse: preserve;&quot;&gt;restaurante_id(FK)&lt;/span&gt;&lt;/span&gt;" style="text;strokeColor=#82b366;fillColor=#d5e8d4;align=left;verticalAlign=top;spacingLeft=4;spacingRight=4;overflow=hidden;rotatable=0;points=[[0,0.5],[1,0.5]];portConstraint=eastwest;whiteSpace=wrap;html=1;" vertex="1" parent="zA1o3HYQf6FzbYu6lH_u-9">
          <mxGeometry y="208" width="220" height="26" as="geometry" />
        </mxCell>
        <mxCell id="zA1o3HYQf6FzbYu6lH_u-16" value="&lt;span id=&quot;docs-internal-guid-d859b0e5-7fff-4562-f1cc-75b89f68ffd0&quot;&gt;&lt;span style=&quot;font-size: 11pt; font-family: Montserrat, sans-serif; background-color: transparent; font-variant-numeric: normal; font-variant-east-asian: normal; font-variant-alternates: normal; font-variant-position: normal; vertical-align: baseline; white-space-collapse: preserve;&quot;&gt;categoria&lt;/span&gt;&lt;/span&gt;" style="swimlane;fontStyle=0;childLayout=stackLayout;horizontal=1;startSize=26;fillColor=#dae8fc;horizontalStack=0;resizeParent=1;resizeParentMax=0;resizeLast=0;collapsible=1;marginBottom=0;whiteSpace=wrap;html=1;strokeColor=#6c8ebf;" vertex="1" parent="1">
          <mxGeometry x="102" y="-10" width="190" height="156" as="geometry" />
        </mxCell>
        <mxCell id="zA1o3HYQf6FzbYu6lH_u-17" value="id (PK): int" style="text;strokeColor=#9673a6;fillColor=#e1d5e7;align=left;verticalAlign=top;spacingLeft=4;spacingRight=4;overflow=hidden;rotatable=0;points=[[0,0.5],[1,0.5]];portConstraint=eastwest;whiteSpace=wrap;html=1;fontStyle=1;fontSize=16;" vertex="1" parent="zA1o3HYQf6FzbYu6lH_u-16">
          <mxGeometry y="26" width="190" height="26" as="geometry" />
        </mxCell>
        <mxCell id="zA1o3HYQf6FzbYu6lH_u-18" value="&lt;span id=&quot;docs-internal-guid-5672fcab-7fff-6d15-edfa-53f6b22f45ff&quot;&gt;&lt;span style=&quot;font-size: 11pt; font-family: Montserrat, sans-serif; background-color: transparent; font-variant-numeric: normal; font-variant-east-asian: normal; font-variant-alternates: normal; font-variant-position: normal; vertical-align: baseline; white-space-collapse: preserve;&quot;&gt;entrada&lt;/span&gt;&lt;/span&gt;&lt;span id=&quot;docs-internal-guid-0211dc23-7fff-2954-3f79-a4bf8f088f3e&quot;&gt;&lt;span style=&quot;font-size: 11pt; font-family: Montserrat, sans-serif; background-color: transparent; font-variant-numeric: normal; font-variant-east-asian: normal; font-variant-alternates: normal; font-variant-position: normal; vertical-align: baseline; white-space-collapse: preserve;&quot;&gt;: &lt;/span&gt;&lt;/span&gt;&lt;span style=&quot;white-space-collapse: preserve; font-family: Montserrat, sans-serif; font-size: 14.6667px;&quot;&gt;varchar(50)&lt;/span&gt;" style="text;strokeColor=default;fillColor=default;align=left;verticalAlign=top;spacingLeft=4;spacingRight=4;overflow=hidden;rotatable=0;points=[[0,0.5],[1,0.5]];portConstraint=eastwest;whiteSpace=wrap;html=1;" vertex="1" parent="zA1o3HYQf6FzbYu6lH_u-16">
          <mxGeometry y="52" width="190" height="26" as="geometry" />
        </mxCell>
        <mxCell id="zA1o3HYQf6FzbYu6lH_u-19" value="&lt;span id=&quot;docs-internal-guid-ac699ceb-7fff-8fd1-0588-3953537d696d&quot;&gt;&lt;span style=&quot;font-size: 11pt; font-family: Montserrat, sans-serif; background-color: transparent; font-variant-numeric: normal; font-variant-east-asian: normal; font-variant-alternates: normal; font-variant-position: normal; vertical-align: baseline; white-space-collapse: preserve;&quot;&gt;plato_fuerte&lt;/span&gt;&lt;/span&gt;&lt;span id=&quot;docs-internal-guid-0211dc23-7fff-2954-3f79-a4bf8f088f3e&quot;&gt;&lt;span style=&quot;font-size: 11pt; font-family: Montserrat, sans-serif; background-color: transparent; font-variant-numeric: normal; font-variant-east-asian: normal; font-variant-alternates: normal; font-variant-position: normal; vertical-align: baseline; white-space-collapse: preserve;&quot;&gt;: &lt;/span&gt;&lt;/span&gt;&lt;span style=&quot;white-space-collapse: preserve; font-family: Montserrat, sans-serif; font-size: 14.6667px;&quot;&gt;varchar(50)&lt;/span&gt;" style="text;strokeColor=default;fillColor=default;align=left;verticalAlign=top;spacingLeft=4;spacingRight=4;overflow=hidden;rotatable=0;points=[[0,0.5],[1,0.5]];portConstraint=eastwest;whiteSpace=wrap;html=1;" vertex="1" parent="zA1o3HYQf6FzbYu6lH_u-16">
          <mxGeometry y="78" width="190" height="26" as="geometry" />
        </mxCell>
        <mxCell id="zA1o3HYQf6FzbYu6lH_u-20" value="&lt;span id=&quot;docs-internal-guid-326b2a0a-7fff-baab-89da-0b952108341b&quot;&gt;&lt;span style=&quot;font-size: 11pt; font-family: Montserrat, sans-serif; background-color: transparent; font-variant-numeric: normal; font-variant-east-asian: normal; font-variant-alternates: normal; font-variant-position: normal; vertical-align: baseline; white-space-collapse: preserve;&quot;&gt;bebidas&lt;/span&gt;&lt;/span&gt;&lt;span id=&quot;docs-internal-guid-0211dc23-7fff-2954-3f79-a4bf8f088f3e&quot;&gt;&lt;span style=&quot;font-size: 11pt; font-family: Montserrat, sans-serif; background-color: transparent; font-variant-numeric: normal; font-variant-east-asian: normal; font-variant-alternates: normal; font-variant-position: normal; vertical-align: baseline; white-space-collapse: preserve;&quot;&gt;: &lt;/span&gt;&lt;/span&gt;&lt;span style=&quot;white-space-collapse: preserve; font-family: Montserrat, sans-serif; font-size: 14.6667px;&quot;&gt;varchar(50)&lt;/span&gt;" style="text;strokeColor=default;fillColor=default;align=left;verticalAlign=top;spacingLeft=4;spacingRight=4;overflow=hidden;rotatable=0;points=[[0,0.5],[1,0.5]];portConstraint=eastwest;whiteSpace=wrap;html=1;" vertex="1" parent="zA1o3HYQf6FzbYu6lH_u-16">
          <mxGeometry y="104" width="190" height="26" as="geometry" />
        </mxCell>
        <mxCell id="zA1o3HYQf6FzbYu6lH_u-21" value="&lt;span id=&quot;docs-internal-guid-8793d13d-7fff-cada-0095-573f2a17c763&quot;&gt;&lt;span style=&quot;font-size: 11pt; font-family: Montserrat, sans-serif; background-color: transparent; font-variant-numeric: normal; font-variant-east-asian: normal; font-variant-alternates: normal; font-variant-position: normal; vertical-align: baseline; white-space-collapse: preserve;&quot;&gt;extra&lt;/span&gt;&lt;/span&gt;&lt;span id=&quot;docs-internal-guid-0211dc23-7fff-2954-3f79-a4bf8f088f3e&quot;&gt;&lt;span style=&quot;font-size: 11pt; font-family: Montserrat, sans-serif; background-color: transparent; font-variant-numeric: normal; font-variant-east-asian: normal; font-variant-alternates: normal; font-variant-position: normal; vertical-align: baseline; white-space-collapse: preserve;&quot;&gt;: &lt;/span&gt;&lt;/span&gt;&lt;span style=&quot;white-space-collapse: preserve; font-family: Montserrat, sans-serif; font-size: 14.6667px;&quot;&gt;varchar(50)&lt;/span&gt;" style="text;strokeColor=default;fillColor=default;align=left;verticalAlign=top;spacingLeft=4;spacingRight=4;overflow=hidden;rotatable=0;points=[[0,0.5],[1,0.5]];portConstraint=eastwest;whiteSpace=wrap;html=1;" vertex="1" parent="zA1o3HYQf6FzbYu6lH_u-16">
          <mxGeometry y="130" width="190" height="26" as="geometry" />
        </mxCell>
        <mxCell id="zA1o3HYQf6FzbYu6lH_u-23" value="&lt;span id=&quot;docs-internal-guid-87e28db2-7fff-642c-0e45-bf22a2c7a5c3&quot;&gt;&lt;span style=&quot;font-size: 11pt; font-family: Montserrat, sans-serif; background-color: transparent; font-variant-numeric: normal; font-variant-east-asian: normal; font-variant-alternates: normal; font-variant-position: normal; vertical-align: baseline; white-space-collapse: preserve;&quot;&gt;registro_de_los_pedidos&lt;/span&gt;&lt;/span&gt;" style="swimlane;fontStyle=0;childLayout=stackLayout;horizontal=1;startSize=26;fillColor=#dae8fc;horizontalStack=0;resizeParent=1;resizeParentMax=0;resizeLast=0;collapsible=1;marginBottom=0;whiteSpace=wrap;html=1;strokeColor=#6c8ebf;" vertex="1" parent="1">
          <mxGeometry x="690" y="30" width="270" height="260" as="geometry" />
        </mxCell>
        <mxCell id="zA1o3HYQf6FzbYu6lH_u-24" value="id (PK): int" style="text;strokeColor=#9673a6;fillColor=#e1d5e7;align=left;verticalAlign=top;spacingLeft=4;spacingRight=4;overflow=hidden;rotatable=0;points=[[0,0.5],[1,0.5]];portConstraint=eastwest;whiteSpace=wrap;html=1;fontStyle=1;fontSize=16;" vertex="1" parent="zA1o3HYQf6FzbYu6lH_u-23">
          <mxGeometry y="26" width="270" height="26" as="geometry" />
        </mxCell>
        <mxCell id="zA1o3HYQf6FzbYu6lH_u-25" value="&lt;span id=&quot;docs-internal-guid-0211dc23-7fff-2954-3f79-a4bf8f088f3e&quot;&gt;&lt;span style=&quot;font-size: 11pt; font-family: Montserrat, sans-serif; background-color: transparent; font-variant-numeric: normal; font-variant-east-asian: normal; font-variant-alternates: normal; font-variant-position: normal; vertical-align: baseline; white-space-collapse: preserve;&quot;&gt;fecha_hora_realizacion: DATETIME&lt;/span&gt;&lt;/span&gt;" style="text;strokeColor=default;fillColor=default;align=left;verticalAlign=top;spacingLeft=4;spacingRight=4;overflow=hidden;rotatable=0;points=[[0,0.5],[1,0.5]];portConstraint=eastwest;whiteSpace=wrap;html=1;" vertex="1" parent="zA1o3HYQf6FzbYu6lH_u-23">
          <mxGeometry y="52" width="270" height="26" as="geometry" />
        </mxCell>
        <mxCell id="zA1o3HYQf6FzbYu6lH_u-27" value="&lt;span id=&quot;docs-internal-guid-9529a134-7fff-7397-e3dc-db4c1557d1ff&quot;&gt;&lt;span style=&quot;font-size: 11pt; font-family: Montserrat, sans-serif; background-color: transparent; font-variant-numeric: normal; font-variant-east-asian: normal; font-variant-alternates: normal; font-variant-position: normal; vertical-align: baseline; white-space-collapse: preserve;&quot;&gt;platos_id (FK): int&lt;/span&gt;&lt;/span&gt;" style="text;strokeColor=#82b366;fillColor=#d5e8d4;align=left;verticalAlign=top;spacingLeft=4;spacingRight=4;overflow=hidden;rotatable=0;points=[[0,0.5],[1,0.5]];portConstraint=eastwest;whiteSpace=wrap;html=1;" vertex="1" parent="zA1o3HYQf6FzbYu6lH_u-23">
          <mxGeometry y="78" width="270" height="26" as="geometry" />
        </mxCell>
        <mxCell id="zA1o3HYQf6FzbYu6lH_u-28" value="&lt;span id=&quot;docs-internal-guid-8793d13d-7fff-cada-0095-573f2a17c763&quot;&gt;&lt;span style=&quot;font-size: 11pt; font-family: Montserrat, sans-serif; background-color: transparent; font-variant-numeric: normal; font-variant-east-asian: normal; font-variant-alternates: normal; font-variant-position: normal; vertical-align: baseline; white-space-collapse: preserve;&quot;&gt;cantidad: tinyint&lt;/span&gt;&lt;/span&gt;" style="text;strokeColor=default;fillColor=default;align=left;verticalAlign=top;spacingLeft=4;spacingRight=4;overflow=hidden;rotatable=0;points=[[0,0.5],[1,0.5]];portConstraint=eastwest;whiteSpace=wrap;html=1;" vertex="1" parent="zA1o3HYQf6FzbYu6lH_u-23">
          <mxGeometry y="104" width="270" height="26" as="geometry" />
        </mxCell>
        <mxCell id="zA1o3HYQf6FzbYu6lH_u-29" value="&lt;span id=&quot;docs-internal-guid-b25e1b8b-7fff-99b2-7bc7-43fe5fb0cd39&quot;&gt;&lt;span style=&quot;font-size: 11pt; font-family: Montserrat, sans-serif; background-color: transparent; font-variant-numeric: normal; font-variant-east-asian: normal; font-variant-alternates: normal; font-variant-position: normal; vertical-align: baseline; white-space-collapse: preserve;&quot;&gt;precio_total: &lt;/span&gt;&lt;/span&gt;&lt;span style=&quot;font-family: Montserrat, sans-serif; font-size: 14.6667px; white-space-collapse: preserve;&quot;&gt;decimal(7,2)&lt;/span&gt;" style="text;strokeColor=default;fillColor=default;align=left;verticalAlign=top;spacingLeft=4;spacingRight=4;overflow=hidden;rotatable=0;points=[[0,0.5],[1,0.5]];portConstraint=eastwest;whiteSpace=wrap;html=1;" vertex="1" parent="zA1o3HYQf6FzbYu6lH_u-23">
          <mxGeometry y="130" width="270" height="26" as="geometry" />
        </mxCell>
        <mxCell id="zA1o3HYQf6FzbYu6lH_u-30" value="&lt;span id=&quot;docs-internal-guid-5f19f74c-7fff-d206-6988-75a0898f7a53&quot;&gt;&lt;span style=&quot;font-size: 11pt; font-family: Montserrat, sans-serif; background-color: transparent; font-variant-numeric: normal; font-variant-east-asian: normal; font-variant-alternates: normal; font-variant-position: normal; vertical-align: baseline; white-space-collapse: preserve;&quot;&gt;aclaraciones: &lt;/span&gt;&lt;/span&gt;&lt;span style=&quot;font-family: Montserrat, sans-serif; font-size: 14.6667px; white-space-collapse: preserve;&quot;&gt;varchar(200)&lt;/span&gt;" style="text;strokeColor=default;fillColor=default;align=left;verticalAlign=top;spacingLeft=4;spacingRight=4;overflow=hidden;rotatable=0;points=[[0,0.5],[1,0.5]];portConstraint=eastwest;whiteSpace=wrap;html=1;" vertex="1" parent="zA1o3HYQf6FzbYu6lH_u-23">
          <mxGeometry y="156" width="270" height="26" as="geometry" />
        </mxCell>
        <mxCell id="zA1o3HYQf6FzbYu6lH_u-31" value="&lt;span id=&quot;docs-internal-guid-e46e36fa-7fff-ffe2-cfa2-4d5fc37af01e&quot;&gt;&lt;span style=&quot;font-size: 11pt; font-family: Montserrat, sans-serif; background-color: transparent; font-variant-numeric: normal; font-variant-east-asian: normal; font-variant-alternates: normal; font-variant-position: normal; vertical-align: baseline; white-space-collapse: preserve;&quot;&gt;direccion_de_entrega: &lt;/span&gt;&lt;/span&gt;&lt;span style=&quot;font-family: Montserrat, sans-serif; font-size: 14.6667px; white-space-collapse: preserve;&quot;&gt;varchar(200)&lt;/span&gt;" style="text;strokeColor=default;fillColor=default;align=left;verticalAlign=top;spacingLeft=4;spacingRight=4;overflow=hidden;rotatable=0;points=[[0,0.5],[1,0.5]];portConstraint=eastwest;whiteSpace=wrap;html=1;" vertex="1" parent="zA1o3HYQf6FzbYu6lH_u-23">
          <mxGeometry y="182" width="270" height="26" as="geometry" />
        </mxCell>
        <mxCell id="zA1o3HYQf6FzbYu6lH_u-32" value="&lt;span id=&quot;docs-internal-guid-e46e36fa-7fff-ffe2-cfa2-4d5fc37af01e&quot;&gt;&lt;span style=&quot;font-size: 11pt; font-family: Montserrat, sans-serif; background-color: transparent; font-variant-numeric: normal; font-variant-east-asian: normal; font-variant-alternates: normal; font-variant-position: normal; vertical-align: baseline; white-space-collapse: preserve;&quot;&gt;fecha_hora_de_envio&lt;/span&gt;&lt;/span&gt;&lt;span style=&quot;font-family: Montserrat, sans-serif; font-size: 14.6667px; white-space-collapse: preserve;&quot;&gt;: DATETIME&lt;/span&gt;" style="text;strokeColor=default;fillColor=default;align=left;verticalAlign=top;spacingLeft=4;spacingRight=4;overflow=hidden;rotatable=0;points=[[0,0.5],[1,0.5]];portConstraint=eastwest;whiteSpace=wrap;html=1;" vertex="1" parent="zA1o3HYQf6FzbYu6lH_u-23">
          <mxGeometry y="208" width="270" height="26" as="geometry" />
        </mxCell>
        <mxCell id="zA1o3HYQf6FzbYu6lH_u-65" value="&lt;span id=&quot;docs-internal-guid-e46e36fa-7fff-ffe2-cfa2-4d5fc37af01e&quot;&gt;&lt;span style=&quot;font-size: 11pt; font-family: Montserrat, sans-serif; background-color: transparent; font-variant-numeric: normal; font-variant-east-asian: normal; font-variant-alternates: normal; font-variant-position: normal; vertical-align: baseline; white-space-collapse: preserve;&quot;&gt;usuario_id(FK): int&lt;/span&gt;&lt;/span&gt;" style="text;strokeColor=#82b366;fillColor=#d5e8d4;align=left;verticalAlign=top;spacingLeft=4;spacingRight=4;overflow=hidden;rotatable=0;points=[[0,0.5],[1,0.5]];portConstraint=eastwest;whiteSpace=wrap;html=1;" vertex="1" parent="zA1o3HYQf6FzbYu6lH_u-23">
          <mxGeometry y="234" width="270" height="26" as="geometry" />
        </mxCell>
        <mxCell id="zA1o3HYQf6FzbYu6lH_u-34" value="&lt;span id=&quot;docs-internal-guid-861f3e69-7fff-2210-76d1-51e22954683f&quot;&gt;&lt;span style=&quot;font-size: 11pt; font-family: Montserrat, sans-serif; background-color: transparent; font-variant-numeric: normal; font-variant-east-asian: normal; font-variant-alternates: normal; font-variant-position: normal; vertical-align: baseline; white-space-collapse: preserve;&quot;&gt;usuarios&lt;/span&gt;&lt;/span&gt;" style="swimlane;fontStyle=0;childLayout=stackLayout;horizontal=1;startSize=26;fillColor=#dae8fc;horizontalStack=0;resizeParent=1;resizeParentMax=0;resizeLast=0;collapsible=1;marginBottom=0;whiteSpace=wrap;html=1;strokeColor=#6c8ebf;" vertex="1" parent="1">
          <mxGeometry x="1040" width="270" height="364" as="geometry" />
        </mxCell>
        <mxCell id="zA1o3HYQf6FzbYu6lH_u-35" value="id (PK): int" style="text;strokeColor=#9673a6;fillColor=#e1d5e7;align=left;verticalAlign=top;spacingLeft=4;spacingRight=4;overflow=hidden;rotatable=0;points=[[0,0.5],[1,0.5]];portConstraint=eastwest;whiteSpace=wrap;html=1;fontStyle=1;fontSize=16;" vertex="1" parent="zA1o3HYQf6FzbYu6lH_u-34">
          <mxGeometry y="26" width="270" height="26" as="geometry" />
        </mxCell>
        <mxCell id="zA1o3HYQf6FzbYu6lH_u-36" value="&lt;span id=&quot;docs-internal-guid-0211dc23-7fff-2954-3f79-a4bf8f088f3e&quot;&gt;&lt;span style=&quot;font-size: 11pt; font-family: Montserrat, sans-serif; background-color: transparent; font-variant-numeric: normal; font-variant-east-asian: normal; font-variant-alternates: normal; font-variant-position: normal; vertical-align: baseline; white-space-collapse: preserve;&quot;&gt;nombre_completo&lt;/span&gt;&lt;/span&gt;&lt;span id=&quot;docs-internal-guid-0211dc23-7fff-2954-3f79-a4bf8f088f3e&quot;&gt;&lt;span style=&quot;font-size: 11pt; font-family: Montserrat, sans-serif; background-color: transparent; font-variant-numeric: normal; font-variant-east-asian: normal; font-variant-alternates: normal; font-variant-position: normal; vertical-align: baseline; white-space-collapse: preserve;&quot;&gt;: &lt;/span&gt;&lt;/span&gt;&lt;span style=&quot;white-space-collapse: preserve; font-family: Montserrat, sans-serif; font-size: 14.6667px;&quot;&gt;varchar(50)&lt;/span&gt;" style="text;strokeColor=default;fillColor=default;align=left;verticalAlign=top;spacingLeft=4;spacingRight=4;overflow=hidden;rotatable=0;points=[[0,0.5],[1,0.5]];portConstraint=eastwest;whiteSpace=wrap;html=1;" vertex="1" parent="zA1o3HYQf6FzbYu6lH_u-34">
          <mxGeometry y="52" width="270" height="26" as="geometry" />
        </mxCell>
        <mxCell id="zA1o3HYQf6FzbYu6lH_u-37" value="&lt;span id=&quot;docs-internal-guid-240b893d-7fff-4a89-8630-27ee9b691f8e&quot;&gt;&lt;span style=&quot;font-size: 11pt; font-family: Montserrat, sans-serif; background-color: transparent; font-variant-numeric: normal; font-variant-east-asian: normal; font-variant-alternates: normal; font-variant-position: normal; vertical-align: baseline; white-space-collapse: preserve;&quot;&gt;telefono: int(15)&lt;/span&gt;&lt;/span&gt;" style="text;strokeColor=default;fillColor=default;align=left;verticalAlign=top;spacingLeft=4;spacingRight=4;overflow=hidden;rotatable=0;points=[[0,0.5],[1,0.5]];portConstraint=eastwest;whiteSpace=wrap;html=1;" vertex="1" parent="zA1o3HYQf6FzbYu6lH_u-34">
          <mxGeometry y="78" width="270" height="26" as="geometry" />
        </mxCell>
        <mxCell id="zA1o3HYQf6FzbYu6lH_u-38" value="&lt;span id=&quot;docs-internal-guid-9529a134-7fff-7397-e3dc-db4c1557d1ff&quot;&gt;&lt;span style=&quot;font-size: 11pt; font-family: Montserrat, sans-serif; background-color: transparent; font-variant-numeric: normal; font-variant-east-asian: normal; font-variant-alternates: normal; font-variant-position: normal; vertical-align: baseline; white-space-collapse: preserve;&quot;&gt;direccion&lt;/span&gt;&lt;/span&gt;&lt;span id=&quot;docs-internal-guid-0211dc23-7fff-2954-3f79-a4bf8f088f3e&quot;&gt;&lt;span style=&quot;font-size: 11pt; font-family: Montserrat, sans-serif; background-color: transparent; font-variant-numeric: normal; font-variant-east-asian: normal; font-variant-alternates: normal; font-variant-position: normal; vertical-align: baseline; white-space-collapse: preserve;&quot;&gt;: &lt;/span&gt;&lt;/span&gt;&lt;span style=&quot;white-space-collapse: preserve; font-family: Montserrat, sans-serif; font-size: 14.6667px;&quot;&gt;varchar(50)&lt;/span&gt;" style="text;strokeColor=default;fillColor=default;align=left;verticalAlign=top;spacingLeft=4;spacingRight=4;overflow=hidden;rotatable=0;points=[[0,0.5],[1,0.5]];portConstraint=eastwest;whiteSpace=wrap;html=1;" vertex="1" parent="zA1o3HYQf6FzbYu6lH_u-34">
          <mxGeometry y="104" width="270" height="26" as="geometry" />
        </mxCell>
        <mxCell id="zA1o3HYQf6FzbYu6lH_u-39" value="&lt;span id=&quot;docs-internal-guid-c7cad4ee-7fff-99a1-bf6b-b3e088b4cd01&quot;&gt;&lt;span style=&quot;font-size: 11pt; font-family: Montserrat, sans-serif; background-color: transparent; font-variant-numeric: normal; font-variant-east-asian: normal; font-variant-alternates: normal; font-variant-position: normal; vertical-align: baseline; white-space-collapse: preserve;&quot;&gt;numero_de_puerta: tinyint&lt;/span&gt;&lt;/span&gt;" style="text;strokeColor=default;fillColor=default;align=left;verticalAlign=top;spacingLeft=4;spacingRight=4;overflow=hidden;rotatable=0;points=[[0,0.5],[1,0.5]];portConstraint=eastwest;whiteSpace=wrap;html=1;" vertex="1" parent="zA1o3HYQf6FzbYu6lH_u-34">
          <mxGeometry y="130" width="270" height="26" as="geometry" />
        </mxCell>
        <mxCell id="zA1o3HYQf6FzbYu6lH_u-40" value="&lt;span id=&quot;docs-internal-guid-dc7a1faa-7fff-0fdf-5cc9-e5f121c042b1&quot;&gt;&lt;span style=&quot;font-size: 11pt; font-family: Montserrat, sans-serif; background-color: transparent; font-variant-numeric: normal; font-variant-east-asian: normal; font-variant-alternates: normal; font-variant-position: normal; vertical-align: baseline; white-space-collapse: preserve;&quot;&gt;piso: tinyint&lt;/span&gt;&lt;/span&gt;" style="text;strokeColor=default;fillColor=default;align=left;verticalAlign=top;spacingLeft=4;spacingRight=4;overflow=hidden;rotatable=0;points=[[0,0.5],[1,0.5]];portConstraint=eastwest;whiteSpace=wrap;html=1;" vertex="1" parent="zA1o3HYQf6FzbYu6lH_u-34">
          <mxGeometry y="156" width="270" height="26" as="geometry" />
        </mxCell>
        <mxCell id="zA1o3HYQf6FzbYu6lH_u-41" value="&lt;span id=&quot;docs-internal-guid-dc7a1faa-7fff-0fdf-5cc9-e5f121c042b1&quot;&gt;&lt;span style=&quot;font-size: 11pt; font-family: Montserrat, sans-serif; background-color: transparent; font-variant-numeric: normal; font-variant-east-asian: normal; font-variant-alternates: normal; font-variant-position: normal; vertical-align: baseline; white-space-collapse: preserve;&quot;&gt;departamento: tinyint&lt;/span&gt;&lt;/span&gt;" style="text;strokeColor=default;fillColor=default;align=left;verticalAlign=top;spacingLeft=4;spacingRight=4;overflow=hidden;rotatable=0;points=[[0,0.5],[1,0.5]];portConstraint=eastwest;whiteSpace=wrap;html=1;" vertex="1" parent="zA1o3HYQf6FzbYu6lH_u-34">
          <mxGeometry y="182" width="270" height="26" as="geometry" />
        </mxCell>
        <mxCell id="zA1o3HYQf6FzbYu6lH_u-42" value="&lt;font face=&quot;Montserrat, sans-serif&quot;&gt;&lt;span style=&quot;font-size: 14.6667px; white-space-collapse: preserve;&quot;&gt;aclaraciones&lt;/span&gt;&lt;/font&gt;&lt;span id=&quot;docs-internal-guid-0211dc23-7fff-2954-3f79-a4bf8f088f3e&quot;&gt;&lt;span style=&quot;font-size: 11pt; font-family: Montserrat, sans-serif; background-color: transparent; font-variant-numeric: normal; font-variant-east-asian: normal; font-variant-alternates: normal; font-variant-position: normal; vertical-align: baseline; white-space-collapse: preserve;&quot;&gt;: &lt;/span&gt;&lt;/span&gt;&lt;span style=&quot;white-space-collapse: preserve; font-family: Montserrat, sans-serif; font-size: 14.6667px;&quot;&gt;varchar(50)&lt;/span&gt;" style="text;strokeColor=default;fillColor=default;align=left;verticalAlign=top;spacingLeft=4;spacingRight=4;overflow=hidden;rotatable=0;points=[[0,0.5],[1,0.5]];portConstraint=eastwest;whiteSpace=wrap;html=1;" vertex="1" parent="zA1o3HYQf6FzbYu6lH_u-34">
          <mxGeometry y="208" width="270" height="26" as="geometry" />
        </mxCell>
        <mxCell id="zA1o3HYQf6FzbYu6lH_u-43" value="&lt;span id=&quot;docs-internal-guid-dc7a1faa-7fff-0fdf-5cc9-e5f121c042b1&quot;&gt;&lt;span style=&quot;font-size: 11pt; font-family: Montserrat, sans-serif; background-color: transparent; font-variant-numeric: normal; font-variant-east-asian: normal; font-variant-alternates: normal; font-variant-position: normal; vertical-align: baseline; white-space-collapse: preserve;&quot;&gt;email&lt;/span&gt;&lt;/span&gt;&lt;span id=&quot;docs-internal-guid-0211dc23-7fff-2954-3f79-a4bf8f088f3e&quot;&gt;&lt;span style=&quot;font-size: 11pt; font-family: Montserrat, sans-serif; background-color: transparent; font-variant-numeric: normal; font-variant-east-asian: normal; font-variant-alternates: normal; font-variant-position: normal; vertical-align: baseline; white-space-collapse: preserve;&quot;&gt;: &lt;/span&gt;&lt;/span&gt;&lt;span style=&quot;white-space-collapse: preserve; font-family: Montserrat, sans-serif; font-size: 14.6667px;&quot;&gt;varchar(50)&lt;/span&gt;" style="text;strokeColor=default;fillColor=default;align=left;verticalAlign=top;spacingLeft=4;spacingRight=4;overflow=hidden;rotatable=0;points=[[0,0.5],[1,0.5]];portConstraint=eastwest;whiteSpace=wrap;html=1;" vertex="1" parent="zA1o3HYQf6FzbYu6lH_u-34">
          <mxGeometry y="234" width="270" height="26" as="geometry" />
        </mxCell>
        <mxCell id="zA1o3HYQf6FzbYu6lH_u-44" value="&lt;span id=&quot;docs-internal-guid-dc7a1faa-7fff-0fdf-5cc9-e5f121c042b1&quot;&gt;&lt;span style=&quot;font-size: 11pt; font-family: Montserrat, sans-serif; background-color: transparent; font-variant-numeric: normal; font-variant-east-asian: normal; font-variant-alternates: normal; font-variant-position: normal; vertical-align: baseline; white-space-collapse: preserve;&quot;&gt;contrasenia&lt;/span&gt;&lt;/span&gt;&lt;span id=&quot;docs-internal-guid-0211dc23-7fff-2954-3f79-a4bf8f088f3e&quot;&gt;&lt;span style=&quot;font-size: 11pt; font-family: Montserrat, sans-serif; background-color: transparent; font-variant-numeric: normal; font-variant-east-asian: normal; font-variant-alternates: normal; font-variant-position: normal; vertical-align: baseline; white-space-collapse: preserve;&quot;&gt;: &lt;/span&gt;&lt;/span&gt;&lt;span style=&quot;white-space-collapse: preserve; font-family: Montserrat, sans-serif; font-size: 14.6667px;&quot;&gt;varchar(8)&lt;/span&gt;" style="text;strokeColor=default;fillColor=default;align=left;verticalAlign=top;spacingLeft=4;spacingRight=4;overflow=hidden;rotatable=0;points=[[0,0.5],[1,0.5]];portConstraint=eastwest;whiteSpace=wrap;html=1;" vertex="1" parent="zA1o3HYQf6FzbYu6lH_u-34">
          <mxGeometry y="260" width="270" height="26" as="geometry" />
        </mxCell>
        <mxCell id="zA1o3HYQf6FzbYu6lH_u-67" value="&lt;span style=&quot;font-family: Montserrat, sans-serif; font-size: 14.6667px; text-align: center; white-space-collapse: preserve;&quot;&gt;tipo_de_usuario_id(FK)&lt;/span&gt;" style="text;strokeColor=#82b366;fillColor=#d5e8d4;align=left;verticalAlign=top;spacingLeft=4;spacingRight=4;overflow=hidden;rotatable=0;points=[[0,0.5],[1,0.5]];portConstraint=eastwest;whiteSpace=wrap;html=1;" vertex="1" parent="zA1o3HYQf6FzbYu6lH_u-34">
          <mxGeometry y="286" width="270" height="26" as="geometry" />
        </mxCell>
        <mxCell id="zA1o3HYQf6FzbYu6lH_u-89" value="&lt;span style=&quot;font-family: Montserrat, sans-serif; font-size: 14.6667px; text-align: center; white-space-collapse: preserve;&quot;&gt;estado_id(FK)&lt;/span&gt;" style="text;strokeColor=#82b366;fillColor=#d5e8d4;align=left;verticalAlign=top;spacingLeft=4;spacingRight=4;overflow=hidden;rotatable=0;points=[[0,0.5],[1,0.5]];portConstraint=eastwest;whiteSpace=wrap;html=1;" vertex="1" parent="zA1o3HYQf6FzbYu6lH_u-34">
          <mxGeometry y="312" width="270" height="26" as="geometry" />
        </mxCell>
        <mxCell id="zA1o3HYQf6FzbYu6lH_u-90" value="&lt;span style=&quot;font-family: Montserrat, sans-serif; font-size: 14.6667px; text-align: center; white-space-collapse: preserve;&quot;&gt;renovacion_id(FK)&lt;/span&gt;" style="text;strokeColor=#82b366;fillColor=#d5e8d4;align=left;verticalAlign=top;spacingLeft=4;spacingRight=4;overflow=hidden;rotatable=0;points=[[0,0.5],[1,0.5]];portConstraint=eastwest;whiteSpace=wrap;html=1;" vertex="1" parent="zA1o3HYQf6FzbYu6lH_u-34">
          <mxGeometry y="338" width="270" height="26" as="geometry" />
        </mxCell>
        <mxCell id="zA1o3HYQf6FzbYu6lH_u-45" value="&lt;span id=&quot;docs-internal-guid-861f3e69-7fff-2210-76d1-51e22954683f&quot;&gt;&lt;span style=&quot;font-size: 11pt; font-family: Montserrat, sans-serif; background-color: transparent; font-variant-numeric: normal; font-variant-east-asian: normal; font-variant-alternates: normal; font-variant-position: normal; vertical-align: baseline; white-space-collapse: preserve;&quot;&gt;tipo_de_usuario&lt;/span&gt;&lt;/span&gt;" style="swimlane;fontStyle=0;childLayout=stackLayout;horizontal=1;startSize=26;fillColor=#dae8fc;horizontalStack=0;resizeParent=1;resizeParentMax=0;resizeLast=0;collapsible=1;marginBottom=0;whiteSpace=wrap;html=1;strokeColor=#6c8ebf;" vertex="1" parent="1">
          <mxGeometry x="1380" y="122" width="150" height="130" as="geometry" />
        </mxCell>
        <mxCell id="zA1o3HYQf6FzbYu6lH_u-46" value="id (PK): int" style="text;strokeColor=#9673a6;fillColor=#e1d5e7;align=left;verticalAlign=top;spacingLeft=4;spacingRight=4;overflow=hidden;rotatable=0;points=[[0,0.5],[1,0.5]];portConstraint=eastwest;whiteSpace=wrap;html=1;fontStyle=1;fontSize=16;" vertex="1" parent="zA1o3HYQf6FzbYu6lH_u-45">
          <mxGeometry y="26" width="150" height="26" as="geometry" />
        </mxCell>
        <mxCell id="zA1o3HYQf6FzbYu6lH_u-47" value="&lt;span id=&quot;docs-internal-guid-0211dc23-7fff-2954-3f79-a4bf8f088f3e&quot;&gt;&lt;span style=&quot;font-size: 11pt; font-family: Montserrat, sans-serif; background-color: transparent; font-variant-numeric: normal; font-variant-east-asian: normal; font-variant-alternates: normal; font-variant-position: normal; vertical-align: baseline; white-space-collapse: preserve;&quot;&gt;membresia&lt;/span&gt;&lt;/span&gt;" style="text;strokeColor=default;fillColor=default;align=left;verticalAlign=top;spacingLeft=4;spacingRight=4;overflow=hidden;rotatable=0;points=[[0,0.5],[1,0.5]];portConstraint=eastwest;whiteSpace=wrap;html=1;" vertex="1" parent="zA1o3HYQf6FzbYu6lH_u-45">
          <mxGeometry y="52" width="150" height="26" as="geometry" />
        </mxCell>
        <mxCell id="zA1o3HYQf6FzbYu6lH_u-48" value="&lt;span id=&quot;docs-internal-guid-240b893d-7fff-4a89-8630-27ee9b691f8e&quot;&gt;&lt;span style=&quot;font-size: 11pt; font-family: Montserrat, sans-serif; background-color: transparent; font-variant-numeric: normal; font-variant-east-asian: normal; font-variant-alternates: normal; font-variant-position: normal; vertical-align: baseline; white-space-collapse: preserve;&quot;&gt;coorporativo&lt;/span&gt;&lt;/span&gt;" style="text;strokeColor=default;fillColor=default;align=left;verticalAlign=top;spacingLeft=4;spacingRight=4;overflow=hidden;rotatable=0;points=[[0,0.5],[1,0.5]];portConstraint=eastwest;whiteSpace=wrap;html=1;" vertex="1" parent="zA1o3HYQf6FzbYu6lH_u-45">
          <mxGeometry y="78" width="150" height="26" as="geometry" />
        </mxCell>
        <mxCell id="zA1o3HYQf6FzbYu6lH_u-49" value="&lt;span id=&quot;docs-internal-guid-9529a134-7fff-7397-e3dc-db4c1557d1ff&quot;&gt;&lt;span style=&quot;font-size: 11pt; font-family: Montserrat, sans-serif; background-color: transparent; font-variant-numeric: normal; font-variant-east-asian: normal; font-variant-alternates: normal; font-variant-position: normal; vertical-align: baseline; white-space-collapse: preserve;&quot;&gt;ocasional&lt;/span&gt;&lt;/span&gt;" style="text;strokeColor=default;fillColor=default;align=left;verticalAlign=top;spacingLeft=4;spacingRight=4;overflow=hidden;rotatable=0;points=[[0,0.5],[1,0.5]];portConstraint=eastwest;whiteSpace=wrap;html=1;" vertex="1" parent="zA1o3HYQf6FzbYu6lH_u-45">
          <mxGeometry y="104" width="150" height="26" as="geometry" />
        </mxCell>
        <mxCell id="zA1o3HYQf6FzbYu6lH_u-56" value="&lt;span id=&quot;docs-internal-guid-861f3e69-7fff-2210-76d1-51e22954683f&quot;&gt;&lt;span style=&quot;font-size: 11pt; font-family: Montserrat, sans-serif; background-color: transparent; font-variant-numeric: normal; font-variant-east-asian: normal; font-variant-alternates: normal; font-variant-position: normal; vertical-align: baseline; white-space-collapse: preserve;&quot;&gt;renovacion&lt;/span&gt;&lt;/span&gt;" style="swimlane;fontStyle=0;childLayout=stackLayout;horizontal=1;startSize=26;fillColor=#dae8fc;horizontalStack=0;resizeParent=1;resizeParentMax=0;resizeLast=0;collapsible=1;marginBottom=0;whiteSpace=wrap;html=1;strokeColor=#6c8ebf;" vertex="1" parent="1">
          <mxGeometry x="1380" y="393" width="230" height="104" as="geometry" />
        </mxCell>
        <mxCell id="zA1o3HYQf6FzbYu6lH_u-57" value="id (PK): int" style="text;strokeColor=#9673a6;fillColor=#e1d5e7;align=left;verticalAlign=top;spacingLeft=4;spacingRight=4;overflow=hidden;rotatable=0;points=[[0,0.5],[1,0.5]];portConstraint=eastwest;whiteSpace=wrap;html=1;fontStyle=1;fontSize=16;" vertex="1" parent="zA1o3HYQf6FzbYu6lH_u-56">
          <mxGeometry y="26" width="230" height="26" as="geometry" />
        </mxCell>
        <mxCell id="zA1o3HYQf6FzbYu6lH_u-58" value="&lt;span id=&quot;docs-internal-guid-0211dc23-7fff-2954-3f79-a4bf8f088f3e&quot;&gt;&lt;span style=&quot;font-size: 11pt; font-family: Montserrat, sans-serif; background-color: transparent; font-variant-numeric: normal; font-variant-east-asian: normal; font-variant-alternates: normal; font-variant-position: normal; vertical-align: baseline; white-space-collapse: preserve;&quot;&gt;fecha_de_alta: DATE&lt;/span&gt;&lt;/span&gt;" style="text;strokeColor=default;fillColor=default;align=left;verticalAlign=top;spacingLeft=4;spacingRight=4;overflow=hidden;rotatable=0;points=[[0,0.5],[1,0.5]];portConstraint=eastwest;whiteSpace=wrap;html=1;" vertex="1" parent="zA1o3HYQf6FzbYu6lH_u-56">
          <mxGeometry y="52" width="230" height="26" as="geometry" />
        </mxCell>
        <mxCell id="zA1o3HYQf6FzbYu6lH_u-59" value="&lt;span id=&quot;docs-internal-guid-240b893d-7fff-4a89-8630-27ee9b691f8e&quot;&gt;&lt;span style=&quot;font-size: 11pt; font-family: Montserrat, sans-serif; background-color: transparent; font-variant-numeric: normal; font-variant-east-asian: normal; font-variant-alternates: normal; font-variant-position: normal; vertical-align: baseline; white-space-collapse: preserve;&quot;&gt;fecha_de_vencimiento&lt;/span&gt;&lt;/span&gt;&lt;span style=&quot;font-family: Montserrat, sans-serif; font-size: 14.6667px; white-space-collapse: preserve;&quot;&gt;: DATE&lt;/span&gt;" style="text;strokeColor=default;fillColor=default;align=left;verticalAlign=top;spacingLeft=4;spacingRight=4;overflow=hidden;rotatable=0;points=[[0,0.5],[1,0.5]];portConstraint=eastwest;whiteSpace=wrap;html=1;" vertex="1" parent="zA1o3HYQf6FzbYu6lH_u-56">
          <mxGeometry y="78" width="230" height="26" as="geometry" />
        </mxCell>
        <mxCell id="zA1o3HYQf6FzbYu6lH_u-61" value="&lt;span id=&quot;docs-internal-guid-861f3e69-7fff-2210-76d1-51e22954683f&quot;&gt;&lt;span style=&quot;font-size: 11pt; font-family: Montserrat, sans-serif; background-color: transparent; font-variant-numeric: normal; font-variant-east-asian: normal; font-variant-alternates: normal; font-variant-position: normal; vertical-align: baseline; white-space-collapse: preserve;&quot;&gt;estado&lt;/span&gt;&lt;/span&gt;" style="swimlane;fontStyle=0;childLayout=stackLayout;horizontal=1;startSize=26;fillColor=#dae8fc;horizontalStack=0;resizeParent=1;resizeParentMax=0;resizeLast=0;collapsible=1;marginBottom=0;whiteSpace=wrap;html=1;strokeColor=#6c8ebf;" vertex="1" parent="1">
          <mxGeometry x="1380" y="286" width="190" height="78" as="geometry" />
        </mxCell>
        <mxCell id="zA1o3HYQf6FzbYu6lH_u-62" value="id (PK): int" style="text;strokeColor=#9673a6;fillColor=#e1d5e7;align=left;verticalAlign=top;spacingLeft=4;spacingRight=4;overflow=hidden;rotatable=0;points=[[0,0.5],[1,0.5]];portConstraint=eastwest;whiteSpace=wrap;html=1;fontStyle=1;fontSize=16;" vertex="1" parent="zA1o3HYQf6FzbYu6lH_u-61">
          <mxGeometry y="26" width="190" height="26" as="geometry" />
        </mxCell>
        <mxCell id="zA1o3HYQf6FzbYu6lH_u-63" value="&lt;span id=&quot;docs-internal-guid-0211dc23-7fff-2954-3f79-a4bf8f088f3e&quot;&gt;&lt;span style=&quot;font-size: 11pt; font-family: Montserrat, sans-serif; background-color: transparent; font-variant-numeric: normal; font-variant-east-asian: normal; font-variant-alternates: normal; font-variant-position: normal; vertical-align: baseline; white-space-collapse: preserve;&quot;&gt;alta: TINYINT&lt;/span&gt;&lt;/span&gt;" style="text;strokeColor=default;fillColor=default;align=left;verticalAlign=top;spacingLeft=4;spacingRight=4;overflow=hidden;rotatable=0;points=[[0,0.5],[1,0.5]];portConstraint=eastwest;whiteSpace=wrap;html=1;" vertex="1" parent="zA1o3HYQf6FzbYu6lH_u-61">
          <mxGeometry y="52" width="190" height="26" as="geometry" />
        </mxCell>
        <mxCell id="zA1o3HYQf6FzbYu6lH_u-68" value="" style="edgeStyle=entityRelationEdgeStyle;fontSize=12;html=1;endArrow=ERoneToMany;startArrow=ERmandOne;rounded=0;exitX=1;exitY=0.5;exitDx=0;exitDy=0;" edge="1" parent="1" source="zA1o3HYQf6FzbYu6lH_u-10" target="zA1o3HYQf6FzbYu6lH_u-27">
          <mxGeometry width="100" height="100" relative="1" as="geometry">
            <mxPoint x="490" y="410" as="sourcePoint" />
            <mxPoint x="590" y="310" as="targetPoint" />
          </mxGeometry>
        </mxCell>
        <mxCell id="zA1o3HYQf6FzbYu6lH_u-70" value="" style="edgeStyle=entityRelationEdgeStyle;fontSize=12;html=1;endArrow=ERoneToMany;startArrow=ERmandOne;rounded=0;entryX=1;entryY=0.5;entryDx=0;entryDy=0;exitX=0;exitY=0.5;exitDx=0;exitDy=0;" edge="1" parent="1" source="zA1o3HYQf6FzbYu6lH_u-46" target="zA1o3HYQf6FzbYu6lH_u-67">
          <mxGeometry width="100" height="100" relative="1" as="geometry">
            <mxPoint x="490" y="560" as="sourcePoint" />
            <mxPoint x="590" y="460" as="targetPoint" />
          </mxGeometry>
        </mxCell>
        <mxCell id="zA1o3HYQf6FzbYu6lH_u-83" value="" style="edgeStyle=entityRelationEdgeStyle;fontSize=12;html=1;endArrow=ERoneToMany;startArrow=ERmandOne;rounded=0;" edge="1" parent="1">
          <mxGeometry width="100" height="100" relative="1" as="geometry">
            <mxPoint x="290" y="30" as="sourcePoint" />
            <mxPoint x="370" y="184.5" as="targetPoint" />
          </mxGeometry>
        </mxCell>
        <mxCell id="zA1o3HYQf6FzbYu6lH_u-88" value="" style="edgeStyle=entityRelationEdgeStyle;fontSize=12;html=1;endArrow=ERoneToMany;startArrow=ERmandOne;rounded=0;" edge="1" parent="1" source="zA1o3HYQf6FzbYu6lH_u-2" target="zA1o3HYQf6FzbYu6lH_u-87">
          <mxGeometry width="100" height="100" relative="1" as="geometry">
            <mxPoint x="260" y="310" as="sourcePoint" />
            <mxPoint x="340" y="210" as="targetPoint" />
            <Array as="points">
              <mxPoint x="340" y="310" />
              <mxPoint x="380" y="210" />
            </Array>
          </mxGeometry>
        </mxCell>
        <mxCell id="zA1o3HYQf6FzbYu6lH_u-91" value="" style="edgeStyle=entityRelationEdgeStyle;fontSize=12;html=1;endArrow=ERoneToMany;startArrow=ERmandOne;rounded=0;" edge="1" parent="1" source="zA1o3HYQf6FzbYu6lH_u-62" target="zA1o3HYQf6FzbYu6lH_u-89">
          <mxGeometry width="100" height="100" relative="1" as="geometry">
            <mxPoint x="460" y="710" as="sourcePoint" />
            <mxPoint x="560" y="610" as="targetPoint" />
          </mxGeometry>
        </mxCell>
        <mxCell id="zA1o3HYQf6FzbYu6lH_u-93" value="" style="edgeStyle=entityRelationEdgeStyle;fontSize=12;html=1;endArrow=ERoneToMany;startArrow=ERoneToMany;rounded=0;" edge="1" parent="1" source="zA1o3HYQf6FzbYu6lH_u-35" target="zA1o3HYQf6FzbYu6lH_u-65">
          <mxGeometry width="100" height="100" relative="1" as="geometry">
            <mxPoint x="690" y="520" as="sourcePoint" />
            <mxPoint x="790" y="420" as="targetPoint" />
          </mxGeometry>
        </mxCell>
        <mxCell id="zA1o3HYQf6FzbYu6lH_u-95" value="&lt;font face=&quot;Montserrat, sans-serif&quot;&gt;&lt;span style=&quot;font-size: 14.6667px; white-space-collapse: preserve;&quot;&gt;plato_ingrediente&lt;/span&gt;&lt;/font&gt;" style="swimlane;fontStyle=0;childLayout=stackLayout;horizontal=1;startSize=26;fillColor=#dae8fc;horizontalStack=0;resizeParent=1;resizeParentMax=0;resizeLast=0;collapsible=1;marginBottom=0;whiteSpace=wrap;html=1;strokeColor=#6c8ebf;opacity=40;" vertex="1" parent="1">
          <mxGeometry x="370" y="-160" width="220" height="104" as="geometry" />
        </mxCell>
        <mxCell id="zA1o3HYQf6FzbYu6lH_u-96" value="id (PK): int" style="text;strokeColor=#9673a6;fillColor=#e1d5e7;align=left;verticalAlign=top;spacingLeft=4;spacingRight=4;overflow=hidden;rotatable=0;points=[[0,0.5],[1,0.5]];portConstraint=eastwest;whiteSpace=wrap;html=1;fontStyle=1;fontSize=16;opacity=40;" vertex="1" parent="zA1o3HYQf6FzbYu6lH_u-95">
          <mxGeometry y="26" width="220" height="26" as="geometry" />
        </mxCell>
        <mxCell id="zA1o3HYQf6FzbYu6lH_u-102" value="&lt;span id=&quot;docs-internal-guid-8793d13d-7fff-cada-0095-573f2a17c763&quot;&gt;&lt;span style=&quot;font-size: 11pt; font-family: Montserrat, sans-serif; background-color: transparent; font-variant-numeric: normal; font-variant-east-asian: normal; font-variant-alternates: normal; font-variant-position: normal; vertical-align: baseline; white-space-collapse: preserve;&quot;&gt;plato_id(FK)&lt;/span&gt;&lt;/span&gt;" style="text;strokeColor=#82b366;fillColor=#d5e8d4;align=left;verticalAlign=top;spacingLeft=4;spacingRight=4;overflow=hidden;rotatable=0;points=[[0,0.5],[1,0.5]];portConstraint=eastwest;whiteSpace=wrap;html=1;opacity=40;" vertex="1" parent="zA1o3HYQf6FzbYu6lH_u-95">
          <mxGeometry y="52" width="220" height="26" as="geometry" />
        </mxCell>
        <mxCell id="zA1o3HYQf6FzbYu6lH_u-103" value="&lt;span id=&quot;docs-internal-guid-8793d13d-7fff-cada-0095-573f2a17c763&quot;&gt;&lt;span style=&quot;font-size: 11pt; font-family: Montserrat, sans-serif; background-color: transparent; font-variant-numeric: normal; font-variant-east-asian: normal; font-variant-alternates: normal; font-variant-position: normal; vertical-align: baseline; white-space-collapse: preserve;&quot;&gt;ingrediente_id(FK)&lt;/span&gt;&lt;/span&gt;" style="text;strokeColor=#82b366;fillColor=#d5e8d4;align=left;verticalAlign=top;spacingLeft=4;spacingRight=4;overflow=hidden;rotatable=0;points=[[0,0.5],[1,0.5]];portConstraint=eastwest;whiteSpace=wrap;html=1;opacity=40;" vertex="1" parent="zA1o3HYQf6FzbYu6lH_u-95">
          <mxGeometry y="78" width="220" height="26" as="geometry" />
        </mxCell>
        <mxCell id="zA1o3HYQf6FzbYu6lH_u-104" value="&lt;font face=&quot;Montserrat, sans-serif&quot;&gt;&lt;span style=&quot;font-size: 14.6667px; white-space-collapse: preserve;&quot;&gt;ingrediente&lt;/span&gt;&lt;/font&gt;" style="swimlane;fontStyle=0;childLayout=stackLayout;horizontal=1;startSize=26;fillColor=#dae8fc;horizontalStack=0;resizeParent=1;resizeParentMax=0;resizeLast=0;collapsible=1;marginBottom=0;whiteSpace=wrap;html=1;strokeColor=#6c8ebf;opacity=40;" vertex="1" parent="1">
          <mxGeometry x="690" y="-210" width="220" height="78" as="geometry" />
        </mxCell>
        <mxCell id="zA1o3HYQf6FzbYu6lH_u-105" value="id (PK): int" style="text;strokeColor=#9673a6;fillColor=#e1d5e7;align=left;verticalAlign=top;spacingLeft=4;spacingRight=4;overflow=hidden;rotatable=0;points=[[0,0.5],[1,0.5]];portConstraint=eastwest;whiteSpace=wrap;html=1;fontStyle=1;fontSize=16;opacity=40;" vertex="1" parent="zA1o3HYQf6FzbYu6lH_u-104">
          <mxGeometry y="26" width="220" height="26" as="geometry" />
        </mxCell>
        <mxCell id="zA1o3HYQf6FzbYu6lH_u-106" value="&lt;span id=&quot;docs-internal-guid-8793d13d-7fff-cada-0095-573f2a17c763&quot;&gt;&lt;span style=&quot;font-size: 11pt; font-family: Montserrat, sans-serif; background-color: transparent; font-variant-numeric: normal; font-variant-east-asian: normal; font-variant-alternates: normal; font-variant-position: normal; vertical-align: baseline; white-space-collapse: preserve;&quot;&gt;nombre: varchar(50)&lt;/span&gt;&lt;/span&gt;" style="text;align=left;verticalAlign=top;spacingLeft=4;spacingRight=4;overflow=hidden;rotatable=0;points=[[0,0.5],[1,0.5]];portConstraint=eastwest;whiteSpace=wrap;html=1;opacity=40;" vertex="1" parent="zA1o3HYQf6FzbYu6lH_u-104">
          <mxGeometry y="52" width="220" height="26" as="geometry" />
        </mxCell>
        <mxCell id="zA1o3HYQf6FzbYu6lH_u-108" value="" style="edgeStyle=entityRelationEdgeStyle;fontSize=12;html=1;endArrow=ERoneToMany;startArrow=ERmandOne;rounded=0;opacity=40;entryX=0;entryY=0.5;entryDx=0;entryDy=0;" edge="1" parent="1" target="zA1o3HYQf6FzbYu6lH_u-105">
          <mxGeometry width="100" height="100" relative="1" as="geometry">
            <mxPoint x="590" y="-70" as="sourcePoint" />
            <mxPoint x="660" y="-170" as="targetPoint" />
          </mxGeometry>
        </mxCell>
        <mxCell id="zA1o3HYQf6FzbYu6lH_u-109" value="" style="edgeStyle=entityRelationEdgeStyle;fontSize=12;html=1;endArrow=ERoneToMany;startArrow=ERmandOne;rounded=0;opacity=50;" edge="1" parent="1" target="zA1o3HYQf6FzbYu6lH_u-102" source="zA1o3HYQf6FzbYu6lH_u-10">
          <mxGeometry width="100" height="100" relative="1" as="geometry">
            <mxPoint x="600" y="60" as="sourcePoint" />
            <mxPoint x="660" y="-70" as="targetPoint" />
          </mxGeometry>
        </mxCell>
        <mxCell id="zA1o3HYQf6FzbYu6lH_u-111" value="Esto para mi está de más, los platos pueden tener directamente una combinación de ingredientes única. O para un buscador por ingredientes sería necesario?" style="text;align=left;verticalAlign=top;spacingLeft=4;spacingRight=4;overflow=hidden;rotatable=0;points=[[0,0.5],[1,0.5]];portConstraint=eastwest;whiteSpace=wrap;html=1;dashed=1;fillColor=#ffe6cc;strokeColor=#d79b00;" vertex="1" parent="1">
          <mxGeometry x="370" y="-250" width="260" height="76" as="geometry" />
        </mxCell>
        <mxCell id="zA1o3HYQf6FzbYu6lH_u-112" value="&lt;span id=&quot;docs-internal-guid-87e28db2-7fff-642c-0e45-bf22a2c7a5c3&quot;&gt;&lt;span style=&quot;font-size: 11pt; font-family: Montserrat, sans-serif; background-color: transparent; font-variant-numeric: normal; font-variant-east-asian: normal; font-variant-alternates: normal; font-variant-position: normal; vertical-align: baseline; white-space-collapse: preserve;&quot;&gt;registro_de_los_pedidos_plato&lt;/span&gt;&lt;/span&gt;" style="swimlane;fontStyle=0;childLayout=stackLayout;horizontal=1;startSize=26;fillColor=#dae8fc;horizontalStack=0;resizeParent=1;resizeParentMax=0;resizeLast=0;collapsible=1;marginBottom=0;whiteSpace=wrap;html=1;strokeColor=#6c8ebf;opacity=50;" vertex="1" parent="1">
          <mxGeometry x="970" y="-210" width="250" height="130" as="geometry" />
        </mxCell>
        <mxCell id="zA1o3HYQf6FzbYu6lH_u-113" value="id (PK): int" style="text;strokeColor=#9673a6;fillColor=#e1d5e7;align=left;verticalAlign=top;spacingLeft=4;spacingRight=4;overflow=hidden;rotatable=0;points=[[0,0.5],[1,0.5]];portConstraint=eastwest;whiteSpace=wrap;html=1;fontStyle=1;fontSize=16;opacity=50;" vertex="1" parent="zA1o3HYQf6FzbYu6lH_u-112">
          <mxGeometry y="26" width="250" height="26" as="geometry" />
        </mxCell>
        <mxCell id="zA1o3HYQf6FzbYu6lH_u-122" value="&lt;span id=&quot;docs-internal-guid-8793d13d-7fff-cada-0095-573f2a17c763&quot;&gt;&lt;span style=&quot;font-size: 11pt; font-family: Montserrat, sans-serif; background-color: transparent; font-variant-numeric: normal; font-variant-east-asian: normal; font-variant-alternates: normal; font-variant-position: normal; vertical-align: baseline; white-space-collapse: preserve;&quot;&gt;cantidad: tinyint&lt;/span&gt;&lt;/span&gt;" style="text;strokeColor=default;fillColor=default;align=left;verticalAlign=top;spacingLeft=4;spacingRight=4;overflow=hidden;rotatable=0;points=[[0,0.5],[1,0.5]];portConstraint=eastwest;whiteSpace=wrap;html=1;opacity=50;" vertex="1" parent="zA1o3HYQf6FzbYu6lH_u-112">
          <mxGeometry y="52" width="250" height="26" as="geometry" />
        </mxCell>
        <mxCell id="zA1o3HYQf6FzbYu6lH_u-115" value="&lt;span id=&quot;docs-internal-guid-9529a134-7fff-7397-e3dc-db4c1557d1ff&quot;&gt;&lt;span style=&quot;font-size: 11pt; font-family: Montserrat, sans-serif; background-color: transparent; font-variant-numeric: normal; font-variant-east-asian: normal; font-variant-alternates: normal; font-variant-position: normal; vertical-align: baseline; white-space-collapse: preserve;&quot;&gt;platos_id (FK): int&lt;/span&gt;&lt;/span&gt;" style="text;strokeColor=#82b366;fillColor=#d5e8d4;align=left;verticalAlign=top;spacingLeft=4;spacingRight=4;overflow=hidden;rotatable=0;points=[[0,0.5],[1,0.5]];portConstraint=eastwest;whiteSpace=wrap;html=1;opacity=50;" vertex="1" parent="zA1o3HYQf6FzbYu6lH_u-112">
          <mxGeometry y="78" width="250" height="26" as="geometry" />
        </mxCell>
        <mxCell id="zA1o3HYQf6FzbYu6lH_u-121" value="&lt;span id=&quot;docs-internal-guid-e46e36fa-7fff-ffe2-cfa2-4d5fc37af01e&quot;&gt;&lt;span style=&quot;font-size: 11pt; font-family: Montserrat, sans-serif; background-color: transparent; font-variant-numeric: normal; font-variant-east-asian: normal; font-variant-alternates: normal; font-variant-position: normal; vertical-align: baseline; white-space-collapse: preserve;&quot;&gt;registro_id(FK): int&lt;/span&gt;&lt;/span&gt;" style="text;strokeColor=#82b366;fillColor=#d5e8d4;align=left;verticalAlign=top;spacingLeft=4;spacingRight=4;overflow=hidden;rotatable=0;points=[[0,0.5],[1,0.5]];portConstraint=eastwest;whiteSpace=wrap;html=1;opacity=50;" vertex="1" parent="zA1o3HYQf6FzbYu6lH_u-112">
          <mxGeometry y="104" width="250" height="26" as="geometry" />
        </mxCell>
        <mxCell id="zA1o3HYQf6FzbYu6lH_u-124" value="" style="edgeStyle=entityRelationEdgeStyle;fontSize=12;html=1;endArrow=ERoneToMany;startArrow=ERmandOne;rounded=0;opacity=40;" edge="1" parent="1" source="zA1o3HYQf6FzbYu6lH_u-10" target="zA1o3HYQf6FzbYu6lH_u-115">
          <mxGeometry width="100" height="100" relative="1" as="geometry">
            <mxPoint x="570" y="60" as="sourcePoint" />
            <mxPoint x="940" y="-120" as="targetPoint" />
          </mxGeometry>
        </mxCell>
        <mxCell id="zA1o3HYQf6FzbYu6lH_u-128" value="" style="edgeStyle=entityRelationEdgeStyle;fontSize=12;html=1;endArrow=ERoneToMany;startArrow=ERmandOne;rounded=0;" edge="1" parent="1" source="zA1o3HYQf6FzbYu6lH_u-57" target="zA1o3HYQf6FzbYu6lH_u-90">
          <mxGeometry width="100" height="100" relative="1" as="geometry">
            <mxPoint x="360" y="820" as="sourcePoint" />
            <mxPoint x="410" y="660" as="targetPoint" />
          </mxGeometry>
        </mxCell>
        <mxCell id="zA1o3HYQf6FzbYu6lH_u-123" value="" style="edgeStyle=entityRelationEdgeStyle;fontSize=12;html=1;endArrow=ERoneToMany;startArrow=ERmandOne;rounded=0;opacity=50;entryX=0;entryY=0.5;entryDx=0;entryDy=0;" edge="1" parent="1" source="zA1o3HYQf6FzbYu6lH_u-24" target="zA1o3HYQf6FzbYu6lH_u-121">
          <mxGeometry width="100" height="100" relative="1" as="geometry">
            <mxPoint x="1120" y="90" as="sourcePoint" />
            <mxPoint x="970" y="-170" as="targetPoint" />
            <Array as="points">
              <mxPoint x="1140" y="110" />
              <mxPoint x="1000" y="-30" />
              <mxPoint x="1000" y="-40" />
            </Array>
          </mxGeometry>
        </mxCell>
      </root>
    </mxGraphModel>
  </diagram>
</mxfile>
